<svg viewBox="0 0 20 20" xmlns="http://www.w3.org/2000/svg">
    <path fill-rule="evenodd" clip-rule="evenodd"
        d="M19.1667 14.1666C19.1667 14.6666 18.8333 15 18.3333 15H1.66666C1.16666 15 0.833328 14.6666 0.833328 14.1666C0.833328 13.6666 1.16666 13.3333 1.66666 13.3333C2.58333 13.3333 3.33333 12.5833 3.33333 11.6666V7.49998C3.33333 3.83331 6.33333 0.833313 9.99999 0.833313C13.6667 0.833313 16.6667 3.83331 16.6667 7.49998V11.6666C16.6667 12.5833 17.4167 13.3333 18.3333 13.3333C18.8333 13.3333 19.1667 13.6666 19.1667 14.1666ZM12.1667 17.9166C11.6667 18.75 10.8333 19.1666 10 19.1666C9.58333 19.1666 9.16666 19.0833 8.75 18.8333C8.33333 18.5833 8.08333 18.3333 7.83333 17.9166C7.58333 17.5 7.75 17 8.16666 16.75C8.58333 16.5 9.08333 16.6666 9.33333 17.0833C9.35856 17.1085 9.38379 17.1414 9.41133 17.1773L9.41134 17.1773C9.47476 17.2599 9.55046 17.3585 9.66666 17.4166C10.0833 17.6666 10.5833 17.5 10.8333 17.0833C11.0833 16.6666 11.5833 16.5833 12 16.75C12.4167 16.9166 12.4167 17.5 12.1667 17.9166ZM15 11.6666C15 12.25 15.1667 12.8333 15.4167 13.3333H4.58333C4.83333 12.8333 4.99999 12.25 4.99999 11.6666V7.49998C4.99999 4.74998 7.24999 2.49998 9.99999 2.49998C12.75 2.49998 15 4.74998 15 7.49998V11.6666Z"
        fill="black" />
    <mask id="mask0_2_460" style="mask-type:alpha" maskUnits="userSpaceOnUse" x="0" y="0" width="20" height="20">
        <path fill-rule="evenodd" clip-rule="evenodd"
            d="M19.1667 14.1666C19.1667 14.6666 18.8333 15 18.3333 15H1.66666C1.16666 15 0.833328 14.6666 0.833328 14.1666C0.833328 13.6666 1.16666 13.3333 1.66666 13.3333C2.58333 13.3333 3.33333 12.5833 3.33333 11.6666V7.49998C3.33333 3.83331 6.33333 0.833313 9.99999 0.833313C13.6667 0.833313 16.6667 3.83331 16.6667 7.49998V11.6666C16.6667 12.5833 17.4167 13.3333 18.3333 13.3333C18.8333 13.3333 19.1667 13.6666 19.1667 14.1666ZM12.1667 17.9166C11.6667 18.75 10.8333 19.1666 10 19.1666C9.58333 19.1666 9.16666 19.0833 8.75 18.8333C8.33333 18.5833 8.08333 18.3333 7.83333 17.9166C7.58333 17.5 7.75 17 8.16666 16.75C8.58333 16.5 9.08333 16.6666 9.33333 17.0833C9.35856 17.1085 9.38379 17.1414 9.41133 17.1773L9.41134 17.1773C9.47476 17.2599 9.55046 17.3585 9.66666 17.4166C10.0833 17.6666 10.5833 17.5 10.8333 17.0833C11.0833 16.6666 11.5833 16.5833 12 16.75C12.4167 16.9166 12.4167 17.5 12.1667 17.9166ZM15 11.6666C15 12.25 15.1667 12.8333 15.4167 13.3333H4.58333C4.83333 12.8333 4.99999 12.25 4.99999 11.6666V7.49998C4.99999 4.74998 7.24999 2.49998 9.99999 2.49998C12.75 2.49998 15 4.74998 15 7.49998V11.6666Z"
            fill="white" />
    </mask>
    <g mask="url(#mask0_2_460)">
        <rect width="20" height="20" fill="#6E6B7B" />
    </g>
</svg>