<svg viewBox="0 0 16 16" xmlns="http://www.w3.org/2000/svg">
    <path
        d="M13.6 14.4V0H2.4V14.4H0.799987V16H15.2V14.4H13.6ZM7.19999 1.60001H8.8V3.20002H7.19999V1.60001ZM7.19999 4.8H8.8V6.40001H7.19999V4.8ZM7.19999 7.99998H8.8V9.59999H7.19999V7.99998ZM5.59998 9.59999H3.99997V7.99998H5.59998V9.59999ZM5.59998 6.40001H3.99997V4.8H5.59998V6.40001ZM5.59998 3.19999H3.99997V1.60001H5.59998V3.19999ZM9.59999 14.4H6.40001V12.8C6.40001 11.92 7.12 11.2 8.00002 11.2C8.88003 11.2 9.59999 11.92 9.59999 12.8V14.4ZM12 9.59999H10.4V7.99998H12V9.59999ZM12 6.40001H10.4V4.8H12V6.40001ZM12 3.19999H10.4V1.60001H12V3.19999Z" />
</svg>