<svg viewBox="0 0 16 16" xmlns="http://www.w3.org/2000/svg">
    <g clip-path="url(#clip0_263:571)">
        <path
            d="M8 0C6.41775 0 4.87103 0.469192 3.55544 1.34824C2.23985 2.2273 1.21447 3.47673 0.608967 4.93854C0.0034663 6.40035 -0.15496 8.00888 0.153721 9.56073C0.462403 11.1126 1.22433 12.538 2.34315 13.6569C3.46197 14.7757 4.88743 15.5376 6.43928 15.8463C7.99113 16.155 9.59966 15.9965 11.0615 15.391C12.5233 14.7855 13.7727 13.7602 14.6518 12.4446C15.5308 11.129 16 9.58226 16 8.00001C15.9975 5.87904 15.1538 3.84566 13.6541 2.34591C12.1543 0.846161 10.121 0.00250216 8 0ZM11.0851 10.0575C11.1546 10.1246 11.21 10.2048 11.2481 10.2935C11.2862 10.3823 11.3063 10.4777 11.3071 10.5743C11.3079 10.6708 11.2895 10.7666 11.253 10.856C11.2164 10.9454 11.1624 11.0266 11.0941 11.0948C11.0258 11.1631 10.9446 11.2171 10.8552 11.2537C10.7659 11.2903 10.6701 11.3087 10.5735 11.3078C10.477 11.307 10.3815 11.2869 10.2928 11.2488C10.2041 11.2107 10.1238 11.1553 10.0567 11.0858L8 9.02837L5.94327 11.0858C5.80611 11.2183 5.6224 11.2916 5.43171 11.29C5.24102 11.2883 5.05861 11.2118 4.92377 11.077C4.78893 10.9421 4.71244 10.7597 4.71078 10.569C4.70913 10.3783 4.78243 10.1946 4.91491 10.0575L6.97164 8.00001L4.91491 5.94255C4.84545 5.87546 4.79004 5.79521 4.75193 5.70648C4.71381 5.61775 4.69375 5.52232 4.69291 5.42575C4.69207 5.32918 4.71047 5.23342 4.74704 5.14404C4.78361 5.05466 4.83761 4.97346 4.9059 4.90517C4.97418 4.83689 5.05538 4.78288 5.14476 4.74632C5.23414 4.70975 5.32991 4.69135 5.42648 4.69218C5.52304 4.69302 5.61847 4.71309 5.7072 4.7512C5.79594 4.78932 5.87619 4.84472 5.94327 4.91419L8 6.97164L10.0567 4.91419C10.1238 4.84472 10.2041 4.78932 10.2928 4.7512C10.3815 4.71309 10.477 4.69302 10.5735 4.69218C10.6701 4.69135 10.7659 4.70975 10.8552 4.74632C10.9446 4.78288 11.0258 4.83689 11.0941 4.90517C11.1624 4.97346 11.2164 5.05466 11.253 5.14404C11.2895 5.23342 11.3079 5.32918 11.3071 5.42575C11.3063 5.52232 11.2862 5.61775 11.2481 5.70648C11.21 5.79521 11.1546 5.87546 11.0851 5.94255L9.02836 8.00001L11.0851 10.0575Z" />
    </g>
    <defs>
        <clipPath id="clip0_263:571">
            <rect width="16" height="16" fill="white" />
        </clipPath>
    </defs>
</svg>