<svg viewBox="0 0 16 16" xmlns="http://www.w3.org/2000/svg">
    <path
        d="M16 4.72098V11.6373C16 11.9343 15.7592 12.1751 15.4622 12.1751H14.6303V6.72028C14.6303 6.07547 14.1077 5.55287 13.4629 5.55287H6.38811C6.35309 5.55287 6.32115 5.53306 6.30566 5.50153L5.57575 4.02107C5.37737 3.61914 4.97628 3.36998 4.52846 3.36998H2.60477V2.53781C2.60477 2.24079 2.84556 2 3.14257 2H6.97363C7.0092 2 7.04073 2.01967 7.05608 2.05134L7.78613 3.53209C7.98437 3.93359 8.3856 4.18318 8.83342 4.18318H15.4622C15.7592 4.18318 16 4.42397 16 4.72098Z" />
    <path
        d="M13.3034 6.78795H6.22865C5.78083 6.78795 5.3796 6.53851 5.18136 6.13686C4.81348 5.39035 4.97545 5.71959 4.45131 4.65639C4.43597 4.62459 4.4043 4.60519 4.36886 4.60519H0.537807C0.240792 4.60519 0 4.84599 0 5.143V14.2425C0 14.5395 0.240792 14.7803 0.537807 14.7803H12.8574C13.1544 14.7803 13.3952 14.5395 13.3952 14.2425V6.87975C13.3952 6.82925 13.3539 6.78795 13.3034 6.78795ZM10.1468 13.0371C10.1468 13.3354 9.90374 13.5749 9.60896 13.5749C9.31459 13.5749 9.07115 13.3357 9.07115 13.0371C9.07115 12.841 9.07115 12.8828 9.07115 12.6871C9.07115 12.3916 9.31096 12.1493 9.60896 12.1493C9.90653 12.1493 10.1468 12.3916 10.1468 12.6871V13.0371ZM11.9102 13.0371C11.9102 13.3354 11.667 13.5749 11.3723 13.5749C11.0762 13.5749 10.8344 13.3347 10.8344 13.0371C10.8344 12.841 10.8344 12.8828 10.8344 12.6871C10.8344 12.3913 11.0744 12.1493 11.3723 12.1493C11.6699 12.1493 11.9102 12.3916 11.9102 12.6871V13.0371Z" />
</svg>