<svg viewBox="0 0 16 16" xmlns="http://www.w3.org/2000/svg">
    <path
        d="M8.9375 2.875H8.46875V2.40625C8.46875 2.14716 8.25909 1.9375 8 1.9375C7.74091 1.9375 7.53125 2.14716 7.53125 2.40625V2.875H7.0625C6.80341 2.875 6.59375 3.08466 6.59375 3.34375C6.59375 3.60284 6.80341 3.8125 7.0625 3.8125H7.53125V4.28125C7.53125 4.54034 7.74091 4.75 8 4.75C8.25909 4.75 8.46875 4.54034 8.46875 4.28125V3.8125H8.9375C9.19659 3.8125 9.40625 3.60284 9.40625 3.34375C9.40625 3.08466 9.19659 2.875 8.9375 2.875Z" />
    <path
        d="M1.40625 7.5625H1.875V6.625H1.40625C0.630813 6.625 0 7.25581 0 8.03125V15.5312C0 15.7903 0.209656 16 0.46875 16H1.875V12.25H0.9375V11.3125H1.875V10.375H0.9375V9.4375H1.875V8.5H0.9375V8.03125C0.9375 7.77306 1.14762 7.5625 1.40625 7.5625Z" />
    <path
        d="M14.5938 6.625H14.125V7.5625H14.5938C14.8524 7.5625 15.0625 7.77306 15.0625 8.03125V8.5H14.125V9.4375H15.0625V10.375H14.125V11.3125H15.0625V12.25H14.125V16H15.5312C15.7903 16 16 15.7903 16 15.5312V8.03125C16 7.25581 15.3692 6.625 14.5938 6.625Z" />
    <path
        d="M11.7812 1.9375H11.2812V0.46875C11.2812 0.209656 11.0716 0 10.8125 0H5.1875C4.92841 0 4.71875 0.209656 4.71875 0.46875V1.9375H4.21875C3.44331 1.9375 2.8125 2.56831 2.8125 3.34375C2.8125 5.43087 2.8125 13.1316 2.8125 16C3.33453 16 6.07053 16 6.59375 16C6.59375 15.8009 6.59375 14.3181 6.59375 14.125H9.40625C9.40625 14.3241 9.40625 15.8069 9.40625 16C9.92828 16 12.6643 16 13.1875 16C13.1875 14.5542 13.1875 4.82578 13.1875 3.34375C13.1875 2.56831 12.5567 1.9375 11.7812 1.9375ZM7.53125 11.3125H5.65625V10.375H7.53125V11.3125ZM7.53125 9.4375H5.65625V8.5H7.53125V9.4375ZM7.53125 7.5625H5.65625V6.625H7.53125V7.5625ZM10.3438 11.3125H8.46875V10.375H10.3438V11.3125ZM10.3438 9.4375H8.46875V8.5H10.3438V9.4375ZM10.3438 7.5625H8.46875V6.625H10.3438V7.5625ZM10.3438 2.40625V5.6875H5.65625V2.40625V0.9375H10.3438V2.40625Z" />
</svg>