<svg viewBox="0 0 16 16" xmlns="http://www.w3.org/2000/svg">
    <g clip-path="url(#clip0_239:591)">
        <path
            d="M8.01367 0C4.81836 0 2.21875 2.59961 2.21875 5.79492C2.21875 7.64075 3.14465 9.86829 4.97083 12.4159C6.31018 14.2844 7.62952 15.6099 7.68506 15.6653L8.01978 16L8.34827 15.6593C8.40369 15.6018 9.7207 14.2302 11.0582 12.3395C12.8833 9.75964 13.8087 7.55774 13.8087 5.79492C13.8087 2.59961 11.2091 0 8.01367 0V0ZM8.01367 9.63696C5.89526 9.63696 4.17163 7.91345 4.17163 5.79492C4.17163 3.67651 5.89526 1.95288 8.01367 1.95288C10.1322 1.95288 11.8557 3.67639 11.8557 5.79492C11.8557 7.91345 10.1322 9.63696 8.01367 9.63696Z" />
        <path
            d="M8.01367 2.88245C6.40771 2.88245 5.1012 4.18896 5.1012 5.79492C5.1012 7.40088 6.40771 8.70752 8.01367 8.70752C9.61975 8.70752 10.9263 7.40088 10.9263 5.79492C10.9263 4.18896 9.61975 2.88245 8.01367 2.88245ZM9.47607 6.24377H8.47852V7.24146H7.54895V6.24377H6.55139V5.31433H7.54895V4.31677H8.47852V5.31433H9.47607V6.24377Z" />
    </g>
    <defs>
        <clipPath id="clip0_239:591">
            <rect width="16" height="16" fill="white" />
        </clipPath>
    </defs>
</svg>