<svg width="21" height="20" viewBox="0 0 21 20" fill="none" xmlns="http://www.w3.org/2000/svg">
    <path
        d="M0.413574 10.0598C0.414738 14.9792 3.99198 19.1678 8.85057 19.9388V12.9498H6.31357V10.0598H8.85357V7.85978C8.74003 6.81732 9.0961 5.77838 9.82521 5.02472C10.5543 4.27105 11.5809 3.8808 12.6266 3.95978C13.3771 3.9719 14.1258 4.03875 14.8666 4.15978V6.61878H13.6026C13.1674 6.56179 12.7299 6.70551 12.4133 7.00945C12.0968 7.3134 11.9353 7.74467 11.9746 8.18178V10.0598H14.7456L14.3026 12.9508H11.9746V19.9388C17.2291 19.1084 20.9137 14.3096 20.3591 9.01886C19.8045 3.72815 15.2049 -0.202287 9.8924 0.074962C4.57994 0.352211 0.414419 4.74009 0.413574 10.0598Z"
        fill="#F7C823" />
</svg>