<svg viewBox="0 0 16 16" xmlns="http://www.w3.org/2000/svg">
    <path
        d="M15.9252 7.09347L14.1869 3.37385C13.8505 2.71964 13.1963 2.32712 12.486 2.32712H3.53271C2.80374 2.32712 2.14953 2.71964 1.83178 3.39254L0.0747664 7.11216C0.0373832 7.18693 0 7.2617 0 7.35516V11.8038C0 12.8318 0.841122 13.6729 1.86916 13.6729H14.1308C15.1589 13.6729 16 12.8318 16 11.8038V7.33646C16 7.24301 15.9813 7.16824 15.9252 7.09347ZM11.1963 6.75702V6.79441C10.9346 6.79441 10.7103 6.96263 10.6542 7.22431C10.6355 7.31777 10.1869 9.42992 8 9.42992C5.83178 9.42992 5.36449 7.29908 5.34579 7.22431C5.30841 6.96263 5.06542 6.79441 4.80374 6.79441H1.40187L2.78505 3.85983C2.91589 3.57945 3.19626 3.39254 3.51402 3.39254H12.4673C12.7664 3.39254 13.0654 3.56076 13.1963 3.82245L14.5794 6.75702H11.1963Z" />
</svg>