<svg width="19" height="20" viewBox="0 0 19 20" fill="none" xmlns="http://www.w3.org/2000/svg">
    <path
        d="M9.41406 19.0179C6.95406 19.0179 6.66406 19.0049 5.70406 18.9629C4.95543 18.9383 4.2165 18.7861 3.51906 18.5129C2.31237 18.0433 1.3582 17.0888 0.889062 15.8819C0.626369 15.182 0.48468 14.4424 0.470063 13.6949C0.414062 12.7369 0.414062 12.4229 0.414062 9.98193C0.414062 7.51493 0.427063 7.22693 0.470063 6.27193C0.485 5.52545 0.626684 4.78694 0.889062 4.08793C1.35769 2.87946 2.31341 1.92411 3.52206 1.45593C4.22071 1.19214 4.95941 1.05008 5.70606 1.03593C6.66106 0.981934 6.97506 0.981934 9.41406 0.981934C11.8941 0.981934 12.1791 0.994934 13.1241 1.03593C13.8727 1.0502 14.6133 1.19224 15.3141 1.45593C16.5224 1.92464 17.4779 2.87981 17.9471 4.08793C18.2142 4.79713 18.3566 5.54719 18.3681 6.30493C18.4241 7.26293 18.4241 7.57593 18.4241 10.0159C18.4241 12.4559 18.4101 12.7759 18.3681 13.7229C18.3532 14.4711 18.2111 15.2114 17.9481 15.9119C17.4777 17.1196 16.5221 18.0745 15.3141 18.5439C14.6143 18.8061 13.8752 18.9478 13.1281 18.9629C12.1731 19.0179 11.8601 19.0179 9.41406 19.0179ZM9.38006 2.56493C6.93406 2.56493 6.68006 2.57693 5.72506 2.61993C5.15505 2.62749 4.59054 2.73267 4.05606 2.93093C3.26682 3.23294 2.64229 3.85493 2.33706 4.64293C2.13728 5.18323 2.03207 5.75391 2.02606 6.32993C1.97306 7.29893 1.97306 7.55293 1.97306 9.98193C1.97306 12.3819 1.98206 12.6729 2.02606 13.6359C2.03501 14.2061 2.14016 14.7707 2.33706 15.3059C2.64274 16.0934 3.26716 16.7149 4.05606 17.0169C4.59018 17.2165 5.15491 17.3217 5.72506 17.3279C6.69306 17.3839 6.94806 17.3839 9.38006 17.3839C11.8331 17.3839 12.0871 17.3719 13.0341 17.3279C13.6045 17.321 14.1694 17.2158 14.7041 17.0169C15.4885 16.7123 16.109 16.0922 16.4141 15.3079C16.6135 14.7672 16.7187 14.1962 16.7251 13.6199H16.7361C16.7791 12.6639 16.7791 12.4089 16.7791 9.96593C16.7791 7.52293 16.7681 7.26593 16.7251 6.31093C16.7161 5.74138 16.6109 5.17744 16.4141 4.64293C16.1097 3.85751 15.4891 3.23623 14.7041 2.93093C14.1695 2.73167 13.6045 2.62645 13.0341 2.61993C12.0671 2.56493 11.8141 2.56493 9.38006 2.56493ZM9.41406 14.6009C7.54405 14.6021 5.85748 13.4767 5.14092 11.7494C4.42437 10.0221 4.81897 8.03326 6.14069 6.71039C7.46242 5.38753 9.45092 4.9912 11.1788 5.70627C12.9067 6.42133 14.0337 8.10692 14.0341 9.97693C14.0313 12.528 11.9651 14.596 9.41406 14.6009ZM9.41406 6.97493C7.75721 6.97493 6.41406 8.31808 6.41406 9.97493C6.41406 11.6318 7.75721 12.9749 9.41406 12.9749C11.0709 12.9749 12.4141 11.6318 12.4141 9.97493C12.4102 8.31968 11.0693 6.97878 9.41406 6.97493ZM14.2141 6.26194C13.6195 6.25973 13.139 5.77652 13.1401 5.18194C13.1412 4.58736 13.6235 4.10594 14.2181 4.10594C14.8126 4.10594 15.295 4.58735 15.2961 5.18193C15.2963 5.4688 15.1824 5.74396 14.9793 5.94661C14.7763 6.14927 14.5009 6.26273 14.2141 6.26194Z"
        fill="#F7C823" />
</svg>