<svg width="19" height="18" viewBox="0 0 19 18" fill="none" xmlns="http://www.w3.org/2000/svg">
    <path
        d="M4.61611 18H0.884242V5.98232H4.61611V18ZM2.74817 4.343C1.55484 4.343 0.586914 3.35458 0.586914 2.16125C0.586914 1.58805 0.814617 1.03833 1.21993 0.633017C1.62524 0.227703 2.17497 0 2.74817 0C3.32137 0 3.87109 0.227703 4.2764 0.633017C4.68172 1.03833 4.90942 1.58805 4.90942 2.16125C4.90942 3.35458 3.9411 4.343 2.74817 4.343ZM18.5833 18H14.8595V12.1499C14.8595 10.7556 14.8313 8.96766 12.9192 8.96766C10.9789 8.96766 10.6816 10.4824 10.6816 12.0494V18H6.95375V5.98232H10.5329V7.62164H10.5852C11.0834 6.67743 12.3004 5.68097 14.1161 5.68097C17.893 5.68097 18.5873 8.16808 18.5873 11.3985V18H18.5833Z"
        fill="#F7C823" />
</svg>