<svg viewBox="0 0 13 15" xmlns="http://www.w3.org/2000/svg">
    <path
        d="M0.980957 6.61936V13.3548C0.980957 14.2645 1.77575 15 2.74717 15H11.2147C12.1862 15 12.981 14.2645 12.981 13.3548V6.61936C12.981 5.7145 12.1862 4.97419 11.2147 4.97419H11.0641V3.80323C11.0641 1.70321 9.23033 0 6.98096 0C4.7316 0 2.89784 1.70321 2.89784 3.80323V4.97419H2.74718C1.77575 4.97419 0.980957 5.71455 0.980957 6.61936ZM6.98096 8.80649C7.68222 8.80649 8.2485 9.33386 8.2485 9.9871C8.2485 10.6404 7.68222 11.1677 6.98096 11.1677C6.27967 11.1677 5.71343 10.6404 5.71343 9.9871C5.71343 9.33386 6.27967 8.80649 6.98096 8.80649ZM4.45629 3.80323C4.45629 2.50645 5.58876 1.45161 6.98096 1.45161C8.37317 1.45161 9.50563 2.50645 9.50563 3.80323V4.97419H4.45629V3.80323H4.45629Z" />
</svg>