<svg viewBox="0 0 16 16" xmlns="http://www.w3.org/2000/svg">
    <path
        d="M2.27475 8C2.27475 10.5781 4.37222 12.6756 6.95034 12.6756C7.85897 12.6771 8.74815 12.4125 9.50825 11.9147L10.7547 13.8175C9.70619 14.503 8.49191 14.8923 7.24029 14.9443C5.98868 14.9964 4.74627 14.7092 3.64447 14.1131C2.54268 13.517 1.62246 12.6343 0.981146 11.5582C0.339835 10.4821 0.00127411 9.25269 0.00127411 8C0.00127411 6.7473 0.339835 5.51789 0.981146 4.4418C1.62246 3.36571 2.54268 2.48295 3.64447 1.88689C4.74627 1.29083 5.98868 1.00362 7.24029 1.05565C8.49191 1.10768 9.70619 1.49701 10.7547 2.18247L9.50825 4.08531C8.74815 3.58746 7.85897 3.32295 6.95034 3.3244C4.37222 3.3244 2.27475 5.42187 2.27475 8ZM10.7173 5.93437L11.6457 6.8625H7.12812V9.1375H11.6456L10.7173 10.0656L12.3257 11.6741L16 8L12.3257 4.32572L10.7173 5.93437Z" />
</svg>