<svg width="21" height="20" viewBox="0 0 21 20" fill="none" xmlns="http://www.w3.org/2000/svg">
    <path
        d="M10.5869 0C5.06348 0 0.586914 4.47656 0.586914 10C0.586914 14.2383 3.22363 17.8555 6.94238 19.3125C6.85644 18.5195 6.77441 17.3086 6.97754 16.4453C7.16113 15.6641 8.14941 11.4766 8.14941 11.4766C8.14941 11.4766 7.84863 10.8789 7.84863 9.99219C7.84863 8.60156 8.65332 7.5625 9.65723 7.5625C10.5088 7.5625 10.9229 8.20312 10.9229 8.97266C10.9229 9.83203 10.376 11.1133 10.0947 12.3008C9.86035 13.2969 10.5947 14.1094 11.5752 14.1094C13.3525 14.1094 14.7197 12.2344 14.7197 9.53125C14.7197 7.13672 13.001 5.46094 10.5439 5.46094C7.70019 5.46094 6.02832 7.59375 6.02832 9.80078C6.02832 10.6602 6.36035 11.582 6.77441 12.082C6.85644 12.1797 6.86816 12.2695 6.84473 12.3672C6.77051 12.6836 6.59863 13.3633 6.56738 13.5C6.52441 13.6836 6.42285 13.7227 6.23145 13.6328C4.98145 13.0508 4.2002 11.2266 4.2002 9.75781C4.2002 6.60156 6.49316 3.70703 10.8057 3.70703C14.2744 3.70703 16.9697 6.17969 16.9697 9.48438C16.9697 12.9297 14.7979 15.7031 11.7822 15.7031C10.7705 15.7031 9.81738 15.1758 9.48926 14.5547C9.48926 14.5547 8.98926 16.4648 8.86816 16.9336C8.6416 17.8008 8.03223 18.8906 7.62598 19.5547C8.56348 19.8438 9.55566 20 10.5869 20C16.1104 20 20.5869 15.5234 20.5869 10C20.5869 4.47656 16.1104 0 10.5869 0Z"
        fill="#F7C823" />
</svg>