<svg viewBox="0 0 16 16" xmlns="http://www.w3.org/2000/svg">
    <g clip-path="url(#clip0_238:587)">
        <path fill-rule="evenodd" clip-rule="evenodd"
            d="M8.78877 1.23338C10.4342 -0.411148 13.1107 -0.411148 14.7561 1.23338C16.4011 2.87885 16.4011 5.55576 14.7561 7.20076L14.0804 7.93901C13.5152 7.69688 12.894 7.56129 12.2413 7.56129C11.1032 7.56129 10.0726 7.98516 9.25965 8.66213L5.30984 4.71232L8.78877 1.23338ZM4.64687 5.37525L8.60218 9.33053C7.95621 10.1341 7.55308 11.1406 7.55305 12.2494C7.55305 12.9022 7.68865 13.5233 7.93077 14.0885L7.24052 14.7821C5.59505 16.4267 2.88733 16.3953 1.24193 14.7509C-0.403041 13.1054 -0.403041 10.4285 1.24193 8.78353L4.64687 5.37525ZM8.49071 12.2495C8.49071 14.1602 9.92486 15.7196 11.7724 15.9527V8.5462C9.92486 8.77929 8.49071 10.3386 8.49071 12.2495ZM12.7101 15.9527V8.5462C14.5576 8.77929 15.9918 10.3387 15.9918 12.2494C15.9918 14.1602 14.5576 15.7196 12.7101 15.9527Z" />
    </g>
    <defs>
        <clipPath id="clip0_238:587">
            <rect width="16" height="16" fill="white" />
        </clipPath>
    </defs>
</svg>