<svg viewBox="0 0 16 16" xmlns="http://www.w3.org/2000/svg">
    <path
        d="M4 6.28452H0.572385C0.257741 6.28452 0.00334728 6.53891 0 6.8569V15.4259C0 15.7439 0.257741 15.9983 0.572385 15.9983H4C4.31799 15.9983 4.57239 15.7406 4.57239 15.4259V6.8569C4.57239 6.53891 4.31464 6.28452 4 6.28452Z" />
    <path
        d="M9.71381 0.00167847H6.28619C5.97155 0.00167847 5.71381 0.256072 5.71381 0.570716V15.4259C5.71381 15.7439 5.97155 15.9983 6.28619 15.9983H9.71381C10.0318 15.9983 10.2862 15.7406 10.2862 15.4259V0.574063C10.2862 0.256072 10.0285 0.00167847 9.71381 0.00167847Z" />
    <path
        d="M15.4276 4.57071H12C11.682 4.57071 11.4276 4.8251 11.4276 5.14309V15.426C11.4276 15.7439 11.6854 15.9983 12 15.9983H15.4276C15.7456 15.9983 16 15.7406 16 15.426V5.14309C16 4.8251 15.7423 4.57071 15.4276 4.57071Z" />
</svg>