<svg viewBox="0 0 16 16" xmlns="http://www.w3.org/2000/svg">
    <path
        d="M15.5206 9.75334L14.0499 8.60334C14.0686 8.426 14.0846 8.21869 14.0846 7.99934C14.0846 7.78 14.0692 7.57269 14.0499 7.39534L15.5219 6.24469C15.7953 6.02869 15.8699 5.64534 15.6959 5.32603L14.1666 2.68C14.0032 2.38134 13.6452 2.228 13.2819 2.362L11.5466 3.05866C11.2139 2.81866 10.8652 2.616 10.5046 2.454L10.2406 0.613344C10.1972 0.264 9.89324 0 9.53393 0H6.46727C6.10793 0 5.80462 0.264 5.76193 0.608L5.49727 2.45534C5.14793 2.61269 4.80462 2.81269 4.45727 3.06L2.71727 2.36134C2.39124 2.23534 2.00124 2.37666 1.83924 2.674L0.307928 5.32334C0.127272 5.62869 0.201928 6.02534 0.481272 6.24669L1.95193 7.39669C1.92858 7.62134 1.91727 7.81669 1.91727 8.00003C1.91727 8.18338 1.92862 8.37869 1.95193 8.60403L0.479928 9.75469C0.206584 9.97134 0.132584 10.3547 0.306584 10.6733L1.83593 13.3193C1.99927 13.6173 2.35393 13.772 2.72058 13.6373L4.45593 12.9407C4.78793 13.18 5.13658 13.3827 5.49727 13.5453L5.76127 15.3853C5.80458 15.736 6.10793 16 6.46793 16H9.53458C9.89393 16 10.1979 15.736 10.2406 15.392L10.5052 13.5453C10.8546 13.3873 11.1972 13.188 11.5452 12.94L13.2852 13.6387C13.3692 13.6713 13.4566 13.688 13.5466 13.688C13.8052 13.688 14.0432 13.5467 14.1632 13.3267L15.6992 10.6667C15.8699 10.3547 15.7952 9.97134 15.5206 9.75334ZM8.00059 10.6667C6.52993 10.6667 5.33393 9.47066 5.33393 8C5.33393 6.52934 6.52993 5.33334 8.00059 5.33334C9.47124 5.33334 10.6672 6.52934 10.6672 8C10.6672 9.47066 9.47124 10.6667 8.00059 10.6667Z" />
</svg>