<svg width="23" height="18" viewBox="0 0 23 18" fill="none" xmlns="http://www.w3.org/2000/svg">
    <path
        d="M20.3087 4.48592C20.3228 4.68279 20.3228 4.87969 20.3228 5.07656C20.3228 11.0812 15.7525 18 7.39932 18C4.82587 18 2.43526 17.2547 0.424316 15.961C0.789955 16.0031 1.14148 16.0172 1.52119 16.0172C3.64459 16.0172 5.59931 15.3 7.16025 14.0766C5.16338 14.0344 3.48993 12.7266 2.91336 10.9266C3.19463 10.9687 3.47586 10.9969 3.7712 10.9969C4.179 10.9969 4.58685 10.9406 4.96651 10.8422C2.88527 10.4203 1.32428 8.59218 1.32428 6.38437V6.32814C1.92894 6.66564 2.63213 6.87657 3.37739 6.90467C2.15395 6.08902 1.35242 4.69685 1.35242 3.12184C1.35242 2.27811 1.57737 1.50467 1.97115 0.829666C4.2071 3.58591 7.56805 5.38588 11.3368 5.58279C11.2665 5.24529 11.2243 4.89376 11.2243 4.54219C11.2243 2.03904 13.2493 0 15.7665 0C17.0743 0 18.2555 0.548436 19.0852 1.43437C20.1117 1.23751 21.0961 0.857802 21.968 0.337502C21.6305 1.39221 20.9133 2.27815 19.9711 2.84061C20.8852 2.74222 21.7712 2.48904 22.5868 2.13752C21.9681 3.03748 21.1946 3.83901 20.3087 4.48592Z"
        fill="#F7C823" />
</svg>