<svg viewBox="0 0 16 16" xmlns="http://www.w3.org/2000/svg">
    <g clip-path="url(#clip0_260:554)">
        <path
            d="M4.74843 8.9548C4.97039 8.70018 4.78958 8.30263 4.45179 8.30263H3.44042C3.43383 8.20256 3.43015 8.10171 3.43015 8.00002C3.43015 5.48016 5.48017 3.43015 7.99999 3.43015C9.21093 3.43015 10.3132 3.90373 11.1317 4.67521L12.5579 3.00683C11.3095 1.8648 9.70287 1.23926 7.99999 1.23926C6.19413 1.23926 4.49637 1.94252 3.21943 3.21943C1.94252 4.49637 1.23926 6.19413 1.23926 7.99998C1.23926 8.10124 1.24179 8.20209 1.24619 8.30259H0.394311C0.0565137 8.30259 -0.124328 8.70015 0.0976652 8.95477L2.01939 11.1591L2.42303 11.6221L3.87226 9.95973L4.74843 8.9548Z" />
        <path
            d="M15.9023 7.66872L14.469 6.0246L13.577 5.0014L12.3034 6.46228L11.2516 7.66872C11.0296 7.92334 11.2104 8.3209 11.5482 8.3209H12.5584C12.3932 10.6916 10.4119 12.5699 8.00001 12.5699C6.94715 12.5699 5.97644 12.2118 5.2029 11.6112L3.77669 13.2797C4.97148 14.2392 6.44556 14.7608 8.00004 14.7608C9.80589 14.7608 11.5037 14.0575 12.7806 12.7806C13.9816 11.5796 14.6749 10.0063 14.7531 8.32093H15.6057C15.9435 8.3209 16.1243 7.92334 15.9023 7.66872Z" />
    </g>
    <defs>
        <clipPath id="clip0_260:554">
            <rect width="16" height="16" fill="white" />
        </clipPath>
    </defs>
</svg>