<svg viewBox="0 0 16 16" xmlns="http://www.w3.org/2000/svg">
    <path
        d="M5.47692 7.79692C6.18461 8.31385 7.05846 8.61539 8 8.61539C10.3028 8.61539 12.3077 6.62215 12.3077 4.30769C12.3077 1.93231 10.3754 0 8 0C5.62461 0 3.69231 1.93231 3.69231 4.30769C3.69231 5.74154 4.39384 7.01539 5.47692 7.79692Z" />
    <path
        d="M11.7908 8.33847C10.8 9.27386 9.46462 9.84616 8 9.84616C6.53538 9.84616 5.2 9.27386 4.20923 8.33847C1.70462 9.69232 0 12.3446 0 15.3846C0 15.7231 0.276923 16 0.615385 16H15.3846C15.7231 16 16 15.7231 16 15.3846C16 12.3446 14.2954 9.69232 11.7908 8.33847Z" />
</svg>